<svg width="76" height="120" viewBox="0 0 76 120" fill="none" xmlns="http://www.w3.org/2000/svg">
<path fill-rule="evenodd" clip-rule="evenodd" d="M43.405 40.6657C42.8315 40.0816 42.5103 39.2957 42.5103 38.4772C42.5103 37.6586 42.8315 36.8728 43.405 36.2887L57.092 22.4287C57.374 22.1411 57.7106 21.9127 58.082 21.7568C58.4534 21.6008 58.8522 21.5205 59.255 21.5205C59.6578 21.5205 60.0565 21.6008 60.4279 21.7568C60.7993 21.9127 61.1359 22.1411 61.418 22.4287L75.102 36.2887C75.6768 36.872 75.9991 37.6582 75.9991 38.4772C75.9991 39.2962 75.6768 40.0823 75.102 40.6657L61.418 54.5257C61.1359 54.8132 60.7993 55.0416 60.4279 55.1976C60.0565 55.3535 59.6578 55.4338 59.255 55.4338C58.8522 55.4338 58.4534 55.3535 58.082 55.1976C57.7106 55.0416 57.374 54.8132 57.092 54.5257L43.405 40.6657ZM35.838 33.0057L22.153 19.1457C21.5767 18.5624 21.2536 17.7756 21.2536 16.9557C21.2536 16.1358 21.5767 15.3489 22.153 14.7657L35.838 0.905667C36.12 0.618854 36.4564 0.391062 36.8274 0.235571C37.1984 0.0800798 37.5967 0 37.999 0C38.4012 0 38.7995 0.0800798 39.1705 0.235571C39.5415 0.391062 39.8779 0.618854 40.16 0.905667L53.85 14.7657C54.4248 15.3497 54.7469 16.1362 54.7469 16.9557C54.7469 17.7751 54.4248 18.5617 53.85 19.1457L40.16 33.0057C39.8779 33.2925 39.5415 33.5203 39.1705 33.6758C38.7995 33.8313 38.4012 33.9113 37.999 33.9113C37.5967 33.9113 37.1984 33.8313 36.8274 33.6758C36.4564 33.5203 36.12 33.2925 35.838 33.0057ZM35.838 43.9507C36.12 43.6639 36.4564 43.4361 36.8274 43.2806C37.1984 43.1251 37.5967 43.045 37.999 43.045C38.4012 43.045 38.7995 43.1251 39.1705 43.2806C39.5415 43.4361 39.8779 43.6639 40.16 43.9507L53.85 57.8107C54.4248 58.3947 54.7469 59.1812 54.7469 60.0007C54.7469 60.8201 54.4248 61.6067 53.85 62.1907L40.16 76.0497C39.8783 76.3372 39.5421 76.5657 39.171 76.7216C38.7999 76.8776 38.4015 76.9579 37.999 76.9579C37.5965 76.9579 37.198 76.8776 36.8269 76.7216C36.4558 76.5657 36.1196 76.3372 35.838 76.0497L22.153 62.1897C21.5767 61.6064 21.2536 60.8196 21.2536 59.9997C21.2536 59.1798 21.5767 58.3929 22.153 57.8097L35.838 43.9507ZM14.584 54.5267L0.896964 40.6667C0.32216 40.0827 0 39.2961 0 38.4767C0 37.6572 0.32216 36.8707 0.896964 36.2867L14.584 22.4297C14.8656 22.1421 15.2018 21.9137 15.5729 21.7577C15.944 21.6018 16.3425 21.5214 16.745 21.5214C17.1475 21.5214 17.5459 21.6018 17.917 21.7577C18.2881 21.9137 18.6243 22.1421 18.906 22.4297L32.597 36.2867C33.1703 36.8714 33.4915 37.6577 33.4915 38.4767C33.4915 39.2956 33.1703 40.0819 32.597 40.6667L18.907 54.5267C18.6249 54.8136 18.2885 55.0416 17.9173 55.1971C17.5462 55.3527 17.1479 55.4328 16.7455 55.4328C16.3431 55.4328 15.9447 55.3527 15.5736 55.1971C15.2025 55.0416 14.8661 54.8136 14.584 54.5267ZM61.416 65.4717L75.101 79.3317C75.6772 79.9149 76.0004 80.7018 76.0004 81.5217C76.0004 82.3416 75.6772 83.1284 75.101 83.7117L61.416 97.5737C61.1339 97.8605 60.7975 98.0883 60.4265 98.2438C60.0555 98.3993 59.6572 98.4793 59.255 98.4793C58.8527 98.4793 58.4544 98.3993 58.0834 98.2438C57.7124 98.0883 57.376 97.8605 57.094 97.5737L43.404 83.7137C42.8306 83.1289 42.5094 82.3426 42.5094 81.5237C42.5094 80.7047 42.8306 79.9184 43.404 79.3337L57.094 65.4737C57.376 65.1869 57.7124 64.9591 58.0834 64.8036C58.4544 64.6481 58.8527 64.568 59.255 64.568C59.6572 64.568 60.0555 64.6481 60.4265 64.8036C60.7975 64.9591 61.1339 65.1869 61.416 65.4737V65.4717ZM40.16 86.9937L53.848 100.854C54.4242 101.437 54.7474 102.224 54.7474 103.044C54.7474 103.864 54.4242 104.65 53.848 105.234L40.16 119.094C39.8779 119.38 39.5415 119.608 39.1705 119.764C38.7995 119.919 38.4012 119.999 37.999 119.999C37.5967 119.999 37.1984 119.919 36.8274 119.764C36.4564 119.608 36.12 119.38 35.838 119.094L22.151 105.234C21.5762 104.65 21.254 103.863 21.254 103.044C21.254 102.224 21.5762 101.438 22.151 100.854L35.838 86.9937C36.12 86.7069 36.4564 86.4791 36.8274 86.3236C37.1984 86.1681 37.5967 86.088 37.999 86.088C38.4012 86.088 38.7995 86.1681 39.1705 86.3236C39.5415 86.4791 39.8779 86.7069 40.16 86.9937ZM32.596 79.3337C33.1694 79.9178 33.4907 80.7036 33.4907 81.5222C33.4907 82.3407 33.1694 83.1265 32.596 83.7107L18.91 97.5747C18.6275 97.8616 18.2909 98.0895 17.9195 98.245C17.5482 98.4006 17.1496 98.4807 16.747 98.4807C16.3444 98.4807 15.9458 98.4006 15.5744 98.245C15.2031 98.0895 14.8664 97.8616 14.584 97.5747L0.895964 83.7097C0.322541 83.1255 0.00127891 82.3397 0.00127891 81.5212C0.00127891 80.7026 0.322541 79.9168 0.895964 79.3327L14.583 65.4727C14.865 65.1851 15.2016 64.9567 15.573 64.8008C15.9444 64.6448 16.3432 64.5645 16.746 64.5645C17.1488 64.5645 17.5475 64.6448 17.9189 64.8008C18.2903 64.9567 18.6269 65.1851 18.909 65.4727L32.596 79.3337Z" fill="#E6C3A5"/>
</svg>
